<mxfile host="app.diagrams.net" modified="2023-11-22T04:17:31.444Z" agent="Mozilla/5.0 (Windows NT 10.0; Win64; x64) AppleWebKit/537.36 (KHTML, like Gecko) Chrome/119.0.0.0 Safari/537.36" etag="c9LZjHP9aUOTZpNeqt7J" version="22.1.3" type="github">
  <diagram name="Page-1" id="DkKVMScl8lwrm83scWRC">
    <mxGraphModel dx="1097" dy="1519" grid="1" gridSize="10" guides="1" tooltips="1" connect="1" arrows="1" fold="1" page="1" pageScale="1" pageWidth="850" pageHeight="1100" math="0" shadow="0">
      <root>
        <mxCell id="0" />
        <mxCell id="1" parent="0" />
        <mxCell id="_1HCicG4u0PcO_wvaeoa-1" value="" style="shape=folder;fontStyle=1;spacingTop=10;tabWidth=120;tabHeight=30;tabPosition=left;html=1;whiteSpace=wrap;" vertex="1" parent="1">
          <mxGeometry x="35" y="-1050" width="800" height="440" as="geometry" />
        </mxCell>
        <mxCell id="_1HCicG4u0PcO_wvaeoa-5" value="Smartwatch&lt;br/&gt;System" style="text;align=center;fontStyle=1;verticalAlign=middle;spacingLeft=3;spacingRight=3;strokeColor=none;rotatable=0;points=[[0,0.5],[1,0.5]];portConstraint=eastwest;html=1;" vertex="1" parent="1">
          <mxGeometry x="30" y="-1050" width="100" height="30" as="geometry" />
        </mxCell>
        <mxCell id="_1HCicG4u0PcO_wvaeoa-11" value="Phone" style="swimlane;fontStyle=1;align=center;verticalAlign=top;childLayout=stackLayout;horizontal=1;startSize=26;horizontalStack=0;resizeParent=1;resizeParentMax=0;resizeLast=0;collapsible=1;marginBottom=0;whiteSpace=wrap;html=1;" vertex="1" parent="1">
          <mxGeometry x="20" y="-550" width="240" height="150" as="geometry" />
        </mxCell>
        <mxCell id="_1HCicG4u0PcO_wvaeoa-12" value="&lt;p class=&quot;MsoNormal&quot;&gt;- bluetoothConnection: boolean&lt;/p&gt;" style="text;strokeColor=none;fillColor=none;align=left;verticalAlign=top;spacingLeft=4;spacingRight=4;overflow=hidden;rotatable=0;points=[[0,0.5],[1,0.5]];portConstraint=eastwest;whiteSpace=wrap;html=1;" vertex="1" parent="_1HCicG4u0PcO_wvaeoa-11">
          <mxGeometry y="26" width="240" height="34" as="geometry" />
        </mxCell>
        <mxCell id="_1HCicG4u0PcO_wvaeoa-13" value="" style="line;strokeWidth=1;fillColor=none;align=left;verticalAlign=middle;spacingTop=-1;spacingLeft=3;spacingRight=3;rotatable=0;labelPosition=right;points=[];portConstraint=eastwest;strokeColor=inherit;" vertex="1" parent="_1HCicG4u0PcO_wvaeoa-11">
          <mxGeometry y="60" width="240" height="8" as="geometry" />
        </mxCell>
        <mxCell id="_1HCicG4u0PcO_wvaeoa-16" value="&lt;p class=&quot;MsoNormal&quot;&gt;&amp;nbsp;+establishConnection(): void&lt;br&gt;&lt;/p&gt;" style="text;strokeColor=none;fillColor=none;align=left;verticalAlign=top;spacingLeft=4;spacingRight=4;overflow=hidden;rotatable=0;points=[[0,0.5],[1,0.5]];portConstraint=eastwest;whiteSpace=wrap;html=1;" vertex="1" parent="_1HCicG4u0PcO_wvaeoa-11">
          <mxGeometry y="68" width="240" height="42" as="geometry" />
        </mxCell>
        <mxCell id="_1HCicG4u0PcO_wvaeoa-14" value="&lt;p class=&quot;MsoNormal&quot;&gt;&lt;/p&gt;&lt;p class=&quot;MsoNormal&quot;&gt;&lt;span lang=&quot;en-KE&quot;&gt;+sendData(data: String): void&lt;/span&gt;&lt;/p&gt;" style="text;strokeColor=none;fillColor=none;align=left;verticalAlign=top;spacingLeft=4;spacingRight=4;overflow=hidden;rotatable=0;points=[[0,0.5],[1,0.5]];portConstraint=eastwest;whiteSpace=wrap;html=1;" vertex="1" parent="_1HCicG4u0PcO_wvaeoa-11">
          <mxGeometry y="110" width="240" height="40" as="geometry" />
        </mxCell>
        <mxCell id="_1HCicG4u0PcO_wvaeoa-15" value="&amp;nbsp; &amp;nbsp; &amp;nbsp; &amp;nbsp; &amp;nbsp; &amp;nbsp; &amp;nbsp; &amp;nbsp; &amp;nbsp; &amp;nbsp; &amp;nbsp; &amp;nbsp;&lt;b&gt; Smartwatch&lt;/b&gt;&amp;nbsp;&lt;br&gt;&lt;hr size=&quot;1&quot;&gt;&lt;p class=&quot;MsoNormal&quot;&gt;&amp;nbsp; &amp;nbsp; - brand: String&lt;/p&gt;&lt;p class=&quot;MsoNormal&quot;&gt;&lt;span lang=&quot;EN-US&quot;&gt;&amp;nbsp;&amp;nbsp;&amp;nbsp; - model: String&lt;/span&gt;&lt;/p&gt;&lt;p class=&quot;MsoNormal&quot;&gt;&lt;span lang=&quot;EN-US&quot;&gt;&amp;nbsp;&amp;nbsp;&amp;nbsp; - batteryLevel: int&lt;/span&gt;&lt;/p&gt;&lt;hr size=&quot;1&quot;&gt;&lt;p class=&quot;MsoNormal&quot;&gt;&amp;nbsp; &amp;nbsp; + connectToPhone(): void&lt;/p&gt;&lt;p class=&quot;MsoNormal&quot;&gt;&lt;span lang=&quot;EN-US&quot;&gt;&amp;nbsp;&amp;nbsp;&amp;nbsp; + connectToInternet(): void&lt;/span&gt;&lt;/p&gt;&lt;p class=&quot;MsoNormal&quot;&gt;&lt;span lang=&quot;EN-US&quot;&gt;&amp;nbsp;&amp;nbsp;&amp;nbsp; + connectToCadenceSensor(): void&lt;/span&gt;&lt;/p&gt;" style="verticalAlign=top;align=left;overflow=fill;fontSize=12;fontFamily=Helvetica;html=1;whiteSpace=wrap;" vertex="1" parent="1">
          <mxGeometry x="300" y="-1010" width="270" height="200" as="geometry" />
        </mxCell>
        <mxCell id="_1HCicG4u0PcO_wvaeoa-19" value="&amp;nbsp; &amp;nbsp; &amp;nbsp; &amp;nbsp; &amp;nbsp; &amp;nbsp; &amp;nbsp; &amp;nbsp; &amp;nbsp; &amp;nbsp; &amp;nbsp; &lt;b&gt;&amp;nbsp;&amp;nbsp;Internet&lt;/b&gt;&lt;br&gt;&lt;hr size=&quot;1&quot;&gt;&lt;p class=&quot;MsoNormal&quot;&gt;&amp;nbsp; &amp;nbsp; &amp;nbsp;&amp;nbsp;&amp;nbsp; &lt;span style=&quot;background-color: initial;&quot;&gt;- wifiConnection: boolean&lt;/span&gt;&lt;br&gt;&lt;/p&gt;&lt;p class=&quot;MsoNormal&quot;&gt;&lt;span lang=&quot;EN-US&quot;&gt;&lt;/span&gt;&lt;/p&gt;&lt;hr size=&quot;1&quot;&gt;&lt;p class=&quot;MsoNormal&quot;&gt;&amp;nbsp; &amp;nbsp;&amp;nbsp;&amp;nbsp; &lt;span style=&quot;background-color: initial;&quot;&gt;+ establisConnection(): void&lt;/span&gt;&lt;/p&gt;&lt;span style=&quot;background-color: initial;&quot;&gt;&amp;nbsp; + sendData(data: String): void&lt;/span&gt;" style="verticalAlign=top;align=left;overflow=fill;fontSize=12;fontFamily=Helvetica;html=1;whiteSpace=wrap;" vertex="1" parent="1">
          <mxGeometry x="320" y="-540" width="230" height="130" as="geometry" />
        </mxCell>
        <mxCell id="_1HCicG4u0PcO_wvaeoa-20" value="&amp;nbsp; &amp;nbsp; &amp;nbsp; &amp;nbsp; &amp;nbsp; &lt;b&gt;&amp;nbsp;BikeCadenceSensor&amp;nbsp;&lt;/b&gt;&lt;br&gt;&lt;hr size=&quot;1&quot;&gt;&lt;p class=&quot;MsoNormal&quot;&gt;&amp;nbsp;-antConnection: boolean&lt;br&gt;&lt;/p&gt;&lt;p class=&quot;MsoNormal&quot;&gt;&lt;span lang=&quot;EN-US&quot;&gt;&lt;/span&gt;&lt;/p&gt;&lt;p class=&quot;MsoNormal&quot;&gt;&lt;span lang=&quot;EN-US&quot;&gt;&lt;/span&gt;&lt;/p&gt;&lt;hr size=&quot;1&quot;&gt;&lt;p class=&quot;MsoNormal&quot;&gt;&amp;nbsp;&amp;nbsp;&amp;nbsp; &lt;span style=&quot;background-color: initial;&quot;&gt;+ establishConnection(): void&lt;/span&gt;&lt;/p&gt;&lt;p class=&quot;MsoNormal&quot;&gt;&lt;span lang=&quot;EN-US&quot;&gt;&amp;nbsp;+ getCadenceData(): int&lt;/span&gt;&lt;/p&gt;" style="verticalAlign=top;align=left;overflow=fill;fontSize=12;fontFamily=Helvetica;html=1;whiteSpace=wrap;" vertex="1" parent="1">
          <mxGeometry x="580" y="-540" width="240" height="130" as="geometry" />
        </mxCell>
        <mxCell id="_1HCicG4u0PcO_wvaeoa-22" value="&lt;i style=&quot;border-color: var(--border-color); font-weight: 400;&quot;&gt;&amp;nbsp;&amp;lt;&amp;lt;Interface&amp;gt;&amp;gt;&amp;nbsp;&lt;/i&gt;IPhone" style="swimlane;fontStyle=1;align=center;verticalAlign=top;childLayout=stackLayout;horizontal=1;startSize=26;horizontalStack=0;resizeParent=1;resizeParentMax=0;resizeLast=0;collapsible=1;marginBottom=0;whiteSpace=wrap;html=1;" vertex="1" parent="1">
          <mxGeometry x="40" y="-743" width="240" height="116" as="geometry" />
        </mxCell>
        <mxCell id="_1HCicG4u0PcO_wvaeoa-24" value="" style="line;strokeWidth=1;fillColor=none;align=left;verticalAlign=middle;spacingTop=-1;spacingLeft=3;spacingRight=3;rotatable=0;labelPosition=right;points=[];portConstraint=eastwest;strokeColor=inherit;" vertex="1" parent="_1HCicG4u0PcO_wvaeoa-22">
          <mxGeometry y="26" width="240" height="8" as="geometry" />
        </mxCell>
        <mxCell id="_1HCicG4u0PcO_wvaeoa-26" value="&lt;p class=&quot;MsoNormal&quot;&gt;&lt;/p&gt;&lt;p class=&quot;MsoNormal&quot;&gt;&lt;span lang=&quot;en-KE&quot;&gt;+sendData(data: String): void&lt;/span&gt;&lt;/p&gt;" style="text;strokeColor=none;fillColor=none;align=left;verticalAlign=top;spacingLeft=4;spacingRight=4;overflow=hidden;rotatable=0;points=[[0,0.5],[1,0.5]];portConstraint=eastwest;whiteSpace=wrap;html=1;" vertex="1" parent="_1HCicG4u0PcO_wvaeoa-22">
          <mxGeometry y="34" width="240" height="40" as="geometry" />
        </mxCell>
        <mxCell id="_1HCicG4u0PcO_wvaeoa-25" value="&lt;p class=&quot;MsoNormal&quot;&gt;&amp;nbsp;+establishConnection(): void&lt;br&gt;&lt;/p&gt;" style="text;strokeColor=none;fillColor=none;align=left;verticalAlign=top;spacingLeft=4;spacingRight=4;overflow=hidden;rotatable=0;points=[[0,0.5],[1,0.5]];portConstraint=eastwest;whiteSpace=wrap;html=1;" vertex="1" parent="_1HCicG4u0PcO_wvaeoa-22">
          <mxGeometry y="74" width="240" height="42" as="geometry" />
        </mxCell>
        <mxCell id="_1HCicG4u0PcO_wvaeoa-32" value="&lt;i style=&quot;border-color: var(--border-color); font-weight: 400;&quot;&gt;&amp;nbsp;&amp;lt;&amp;lt;Interface&amp;gt;&amp;gt;&amp;nbsp;&lt;/i&gt;&lt;b style=&quot;border-color: var(--border-color); text-align: left;&quot;&gt;IBikeCadenceSensor&lt;/b&gt;" style="swimlane;fontStyle=1;align=center;verticalAlign=top;childLayout=stackLayout;horizontal=1;startSize=26;horizontalStack=0;resizeParent=1;resizeParentMax=0;resizeLast=0;collapsible=1;marginBottom=0;whiteSpace=wrap;html=1;" vertex="1" parent="1">
          <mxGeometry x="570" y="-743" width="240" height="116" as="geometry" />
        </mxCell>
        <mxCell id="_1HCicG4u0PcO_wvaeoa-33" value="" style="line;strokeWidth=1;fillColor=none;align=left;verticalAlign=middle;spacingTop=-1;spacingLeft=3;spacingRight=3;rotatable=0;labelPosition=right;points=[];portConstraint=eastwest;strokeColor=inherit;" vertex="1" parent="_1HCicG4u0PcO_wvaeoa-32">
          <mxGeometry y="26" width="240" height="8" as="geometry" />
        </mxCell>
        <mxCell id="_1HCicG4u0PcO_wvaeoa-34" value="&lt;p class=&quot;MsoNormal&quot;&gt;&amp;nbsp;+establishConnection(): void&lt;br&gt;&lt;/p&gt;" style="text;strokeColor=none;fillColor=none;align=left;verticalAlign=top;spacingLeft=4;spacingRight=4;overflow=hidden;rotatable=0;points=[[0,0.5],[1,0.5]];portConstraint=eastwest;whiteSpace=wrap;html=1;" vertex="1" parent="_1HCicG4u0PcO_wvaeoa-32">
          <mxGeometry y="34" width="240" height="42" as="geometry" />
        </mxCell>
        <mxCell id="_1HCicG4u0PcO_wvaeoa-35" value="&lt;p class=&quot;MsoNormal&quot;&gt;&lt;/p&gt;&lt;p class=&quot;MsoNormal&quot;&gt;+ getCadenceData(): int&lt;br&gt;&lt;/p&gt;" style="text;strokeColor=none;fillColor=none;align=left;verticalAlign=top;spacingLeft=4;spacingRight=4;overflow=hidden;rotatable=0;points=[[0,0.5],[1,0.5]];portConstraint=eastwest;whiteSpace=wrap;html=1;" vertex="1" parent="_1HCicG4u0PcO_wvaeoa-32">
          <mxGeometry y="76" width="240" height="40" as="geometry" />
        </mxCell>
        <mxCell id="_1HCicG4u0PcO_wvaeoa-36" value="&lt;i style=&quot;border-color: var(--border-color); font-weight: 400;&quot;&gt;&amp;nbsp;&amp;lt;&amp;lt;Interface&amp;gt;&amp;gt;&amp;nbsp;&lt;/i&gt;&lt;b style=&quot;border-color: var(--border-color); text-align: left;&quot;&gt;&amp;nbsp;IInternet&lt;/b&gt;" style="swimlane;fontStyle=1;align=center;verticalAlign=top;childLayout=stackLayout;horizontal=1;startSize=26;horizontalStack=0;resizeParent=1;resizeParentMax=0;resizeLast=0;collapsible=1;marginBottom=0;whiteSpace=wrap;html=1;" vertex="1" parent="1">
          <mxGeometry x="315" y="-740" width="240" height="116" as="geometry" />
        </mxCell>
        <mxCell id="_1HCicG4u0PcO_wvaeoa-37" value="" style="line;strokeWidth=1;fillColor=none;align=left;verticalAlign=middle;spacingTop=-1;spacingLeft=3;spacingRight=3;rotatable=0;labelPosition=right;points=[];portConstraint=eastwest;strokeColor=inherit;" vertex="1" parent="_1HCicG4u0PcO_wvaeoa-36">
          <mxGeometry y="26" width="240" height="8" as="geometry" />
        </mxCell>
        <mxCell id="_1HCicG4u0PcO_wvaeoa-39" value="&lt;p class=&quot;MsoNormal&quot;&gt;&lt;/p&gt;&lt;p class=&quot;MsoNormal&quot;&gt;&lt;span lang=&quot;en-KE&quot;&gt;+sendData(data: String): void&lt;/span&gt;&lt;/p&gt;" style="text;strokeColor=none;fillColor=none;align=left;verticalAlign=top;spacingLeft=4;spacingRight=4;overflow=hidden;rotatable=0;points=[[0,0.5],[1,0.5]];portConstraint=eastwest;whiteSpace=wrap;html=1;" vertex="1" parent="_1HCicG4u0PcO_wvaeoa-36">
          <mxGeometry y="34" width="240" height="40" as="geometry" />
        </mxCell>
        <mxCell id="_1HCicG4u0PcO_wvaeoa-38" value="&lt;p class=&quot;MsoNormal&quot;&gt;&amp;nbsp;+establishConnection(): void&lt;br&gt;&lt;/p&gt;" style="text;strokeColor=none;fillColor=none;align=left;verticalAlign=top;spacingLeft=4;spacingRight=4;overflow=hidden;rotatable=0;points=[[0,0.5],[1,0.5]];portConstraint=eastwest;whiteSpace=wrap;html=1;" vertex="1" parent="_1HCicG4u0PcO_wvaeoa-36">
          <mxGeometry y="74" width="240" height="42" as="geometry" />
        </mxCell>
        <mxCell id="_1HCicG4u0PcO_wvaeoa-44" value="" style="endArrow=open;endSize=12;dashed=1;html=1;rounded=0;entryX=0.401;entryY=0.014;entryDx=0;entryDy=0;entryPerimeter=0;" edge="1" parent="1">
          <mxGeometry width="160" relative="1" as="geometry">
            <mxPoint x="425" y="-810" as="sourcePoint" />
            <mxPoint x="416.24" y="-738.376" as="targetPoint" />
          </mxGeometry>
        </mxCell>
        <mxCell id="_1HCicG4u0PcO_wvaeoa-45" value="" style="endArrow=open;endSize=12;dashed=1;html=1;rounded=0;" edge="1" parent="1">
          <mxGeometry width="160" relative="1" as="geometry">
            <mxPoint x="429" y="-804" as="sourcePoint" />
            <mxPoint x="650" y="-750" as="targetPoint" />
          </mxGeometry>
        </mxCell>
        <mxCell id="_1HCicG4u0PcO_wvaeoa-64" value="" style="shape=folder;fontStyle=1;spacingTop=10;tabWidth=120;tabHeight=30;tabPosition=left;html=1;whiteSpace=wrap;" vertex="1" parent="1">
          <mxGeometry x="95" y="10" width="505" height="250" as="geometry" />
        </mxCell>
        <mxCell id="_1HCicG4u0PcO_wvaeoa-65" value="Smartwatch&lt;br/&gt;System" style="text;align=center;fontStyle=1;verticalAlign=middle;spacingLeft=3;spacingRight=3;strokeColor=none;rotatable=0;points=[[0,0.5],[1,0.5]];portConstraint=eastwest;html=1;" vertex="1" parent="1">
          <mxGeometry x="100" y="10" width="100" height="30" as="geometry" />
        </mxCell>
        <mxCell id="_1HCicG4u0PcO_wvaeoa-66" value="Phone" style="swimlane;fontStyle=1;align=center;verticalAlign=top;childLayout=stackLayout;horizontal=1;startSize=26;horizontalStack=0;resizeParent=1;resizeParentMax=0;resizeLast=0;collapsible=1;marginBottom=0;whiteSpace=wrap;html=1;" vertex="1" parent="1">
          <mxGeometry x="40" y="310" width="200" height="150" as="geometry" />
        </mxCell>
        <mxCell id="_1HCicG4u0PcO_wvaeoa-67" value="&lt;p class=&quot;MsoNormal&quot;&gt;- bluetoothConnection: boolean&lt;/p&gt;" style="text;strokeColor=none;fillColor=none;align=left;verticalAlign=top;spacingLeft=4;spacingRight=4;overflow=hidden;rotatable=0;points=[[0,0.5],[1,0.5]];portConstraint=eastwest;whiteSpace=wrap;html=1;" vertex="1" parent="_1HCicG4u0PcO_wvaeoa-66">
          <mxGeometry y="26" width="200" height="34" as="geometry" />
        </mxCell>
        <mxCell id="_1HCicG4u0PcO_wvaeoa-68" value="" style="line;strokeWidth=1;fillColor=none;align=left;verticalAlign=middle;spacingTop=-1;spacingLeft=3;spacingRight=3;rotatable=0;labelPosition=right;points=[];portConstraint=eastwest;strokeColor=inherit;" vertex="1" parent="_1HCicG4u0PcO_wvaeoa-66">
          <mxGeometry y="60" width="200" height="8" as="geometry" />
        </mxCell>
        <mxCell id="_1HCicG4u0PcO_wvaeoa-69" value="&lt;p class=&quot;MsoNormal&quot;&gt;&amp;nbsp;+establishConnection(): void&lt;br&gt;&lt;/p&gt;" style="text;strokeColor=none;fillColor=none;align=left;verticalAlign=top;spacingLeft=4;spacingRight=4;overflow=hidden;rotatable=0;points=[[0,0.5],[1,0.5]];portConstraint=eastwest;whiteSpace=wrap;html=1;" vertex="1" parent="_1HCicG4u0PcO_wvaeoa-66">
          <mxGeometry y="68" width="200" height="42" as="geometry" />
        </mxCell>
        <mxCell id="_1HCicG4u0PcO_wvaeoa-70" value="&lt;p class=&quot;MsoNormal&quot;&gt;&lt;/p&gt;&lt;p class=&quot;MsoNormal&quot;&gt;&lt;span lang=&quot;en-KE&quot;&gt;+sendData(data: String): void&lt;/span&gt;&lt;/p&gt;" style="text;strokeColor=none;fillColor=none;align=left;verticalAlign=top;spacingLeft=4;spacingRight=4;overflow=hidden;rotatable=0;points=[[0,0.5],[1,0.5]];portConstraint=eastwest;whiteSpace=wrap;html=1;" vertex="1" parent="_1HCicG4u0PcO_wvaeoa-66">
          <mxGeometry y="110" width="200" height="40" as="geometry" />
        </mxCell>
        <mxCell id="_1HCicG4u0PcO_wvaeoa-71" value="&amp;nbsp; &amp;nbsp; &amp;nbsp; &amp;nbsp; &amp;nbsp; &amp;nbsp; &amp;nbsp; &amp;nbsp; &amp;nbsp; &amp;nbsp; &amp;nbsp; &amp;nbsp;&lt;b&gt; Smartwatch&lt;/b&gt;&amp;nbsp;&lt;br&gt;&lt;hr size=&quot;1&quot;&gt;&lt;p class=&quot;MsoNormal&quot;&gt;&amp;nbsp; &amp;nbsp; - brand: String&lt;/p&gt;&lt;p class=&quot;MsoNormal&quot;&gt;&lt;span lang=&quot;EN-US&quot;&gt;&amp;nbsp;&amp;nbsp;&amp;nbsp; - model: String&lt;/span&gt;&lt;/p&gt;&lt;p class=&quot;MsoNormal&quot;&gt;&lt;span lang=&quot;EN-US&quot;&gt;&amp;nbsp;&amp;nbsp;&amp;nbsp; - batteryLevel: int&lt;/span&gt;&lt;/p&gt;&lt;hr size=&quot;1&quot;&gt;&lt;p class=&quot;MsoNormal&quot;&gt;&amp;nbsp; &amp;nbsp; + connectToPhone(): void&lt;/p&gt;&lt;p class=&quot;MsoNormal&quot;&gt;&lt;span lang=&quot;EN-US&quot;&gt;&amp;nbsp;&amp;nbsp;&amp;nbsp; + connectToInternet(): void&lt;/span&gt;&lt;/p&gt;&lt;p class=&quot;MsoNormal&quot;&gt;&lt;span lang=&quot;EN-US&quot;&gt;&amp;nbsp;&amp;nbsp;&amp;nbsp; + connectToCadenceSensor(): void&lt;/span&gt;&lt;/p&gt;" style="verticalAlign=top;align=left;overflow=fill;fontSize=12;fontFamily=Helvetica;html=1;whiteSpace=wrap;" vertex="1" parent="1">
          <mxGeometry x="220" y="50" width="230" height="190" as="geometry" />
        </mxCell>
        <mxCell id="_1HCicG4u0PcO_wvaeoa-72" value="&amp;nbsp; &amp;nbsp; &amp;nbsp; &amp;nbsp; &amp;nbsp; &amp;nbsp; &amp;nbsp; &amp;nbsp; &amp;nbsp; &amp;nbsp; &amp;nbsp; &lt;b&gt;&amp;nbsp;&amp;nbsp;Internet&lt;/b&gt;&lt;br&gt;&lt;hr size=&quot;1&quot;&gt;&lt;p class=&quot;MsoNormal&quot;&gt;&amp;nbsp; &amp;nbsp; &amp;nbsp;&amp;nbsp;&amp;nbsp; &lt;span style=&quot;background-color: initial;&quot;&gt;- wifiConnection: boolean&lt;/span&gt;&lt;br&gt;&lt;/p&gt;&lt;p class=&quot;MsoNormal&quot;&gt;&lt;span lang=&quot;EN-US&quot;&gt;&lt;/span&gt;&lt;/p&gt;&lt;hr size=&quot;1&quot;&gt;&lt;p class=&quot;MsoNormal&quot;&gt;&amp;nbsp; &amp;nbsp;&amp;nbsp;&amp;nbsp; &lt;span style=&quot;background-color: initial;&quot;&gt;+ establisConnection(): void&lt;/span&gt;&lt;/p&gt;&lt;span style=&quot;background-color: initial;&quot;&gt;&amp;nbsp; + sendData(data: String): void&lt;/span&gt;" style="verticalAlign=top;align=left;overflow=fill;fontSize=12;fontFamily=Helvetica;html=1;whiteSpace=wrap;" vertex="1" parent="1">
          <mxGeometry x="290" y="320" width="230" height="130" as="geometry" />
        </mxCell>
        <mxCell id="_1HCicG4u0PcO_wvaeoa-73" value="&amp;nbsp; &amp;nbsp; &amp;nbsp; &amp;nbsp; &amp;nbsp; &lt;b&gt;&amp;nbsp;BikeCadenceSensor&amp;nbsp;&lt;/b&gt;&lt;br&gt;&lt;hr size=&quot;1&quot;&gt;&lt;p class=&quot;MsoNormal&quot;&gt;&amp;nbsp;-antConnection: boolean&lt;br&gt;&lt;/p&gt;&lt;p class=&quot;MsoNormal&quot;&gt;&lt;span lang=&quot;EN-US&quot;&gt;&lt;/span&gt;&lt;/p&gt;&lt;p class=&quot;MsoNormal&quot;&gt;&lt;span lang=&quot;EN-US&quot;&gt;&lt;/span&gt;&lt;/p&gt;&lt;hr size=&quot;1&quot;&gt;&lt;p class=&quot;MsoNormal&quot;&gt;&amp;nbsp;&amp;nbsp;&amp;nbsp; &lt;span style=&quot;background-color: initial;&quot;&gt;+ establishConnection(): void&lt;/span&gt;&lt;/p&gt;&lt;p class=&quot;MsoNormal&quot;&gt;&lt;span lang=&quot;EN-US&quot;&gt;&amp;nbsp;+ getCadenceData(): int&lt;/span&gt;&lt;/p&gt;" style="verticalAlign=top;align=left;overflow=fill;fontSize=12;fontFamily=Helvetica;html=1;whiteSpace=wrap;" vertex="1" parent="1">
          <mxGeometry x="540" y="320" width="240" height="130" as="geometry" />
        </mxCell>
        <mxCell id="_1HCicG4u0PcO_wvaeoa-92" value="&#xa;&lt;span style=&quot;color: rgb(0, 0, 0); font-family: Helvetica; font-size: 11px; font-style: normal; font-variant-ligatures: normal; font-variant-caps: normal; font-weight: 400; letter-spacing: normal; orphans: 2; text-align: center; text-indent: 0px; text-transform: none; widows: 2; word-spacing: 0px; -webkit-text-stroke-width: 0px; background-color: rgb(255, 255, 255); text-decoration-thickness: initial; text-decoration-style: initial; text-decoration-color: initial; float: none; display: inline !important;&quot;&gt;uses&lt;/span&gt;&#xa;&#xa;" style="endArrow=open;endSize=12;dashed=1;html=1;rounded=0;entryX=0.5;entryY=0;entryDx=0;entryDy=0;exitX=0.413;exitY=0.96;exitDx=0;exitDy=0;exitPerimeter=0;" edge="1" parent="1" source="_1HCicG4u0PcO_wvaeoa-64" target="_1HCicG4u0PcO_wvaeoa-66">
          <mxGeometry x="0.0539" y="10" width="160" relative="1" as="geometry">
            <mxPoint x="320" y="250" as="sourcePoint" />
            <mxPoint x="370.03999999999996" y="320" as="targetPoint" />
            <Array as="points" />
            <mxPoint as="offset" />
          </mxGeometry>
        </mxCell>
        <mxCell id="_1HCicG4u0PcO_wvaeoa-103" value="" style="endArrow=block;dashed=0;endFill=0;html=1;rounded=0;entryX=0.292;entryY=0.925;entryDx=0;entryDy=0;entryPerimeter=0;" edge="1" parent="1" target="_1HCicG4u0PcO_wvaeoa-35">
          <mxGeometry x="-0.3472" y="-27" width="160" relative="1" as="geometry">
            <mxPoint x="670" y="-550" as="sourcePoint" />
            <mxPoint x="805" y="-475.84000000000003" as="targetPoint" />
            <Array as="points" />
            <mxPoint as="offset" />
          </mxGeometry>
        </mxCell>
        <mxCell id="_1HCicG4u0PcO_wvaeoa-104" value="uses" style="edgeLabel;html=1;align=center;verticalAlign=middle;resizable=0;points=[];" vertex="1" connectable="0" parent="_1HCicG4u0PcO_wvaeoa-103">
          <mxGeometry x="-0.0594" y="-2" relative="1" as="geometry">
            <mxPoint x="1" as="offset" />
          </mxGeometry>
        </mxCell>
        <mxCell id="_1HCicG4u0PcO_wvaeoa-107" value="" style="endArrow=block;dashed=0;endFill=0;html=1;rounded=0;exitX=0.353;exitY=-0.043;exitDx=0;exitDy=0;exitPerimeter=0;" edge="1" parent="1" source="_1HCicG4u0PcO_wvaeoa-19">
          <mxGeometry x="-0.3472" y="-27" width="160" relative="1" as="geometry">
            <mxPoint x="660" y="-684" as="sourcePoint" />
            <mxPoint x="380" y="-624" as="targetPoint" />
            <Array as="points" />
            <mxPoint as="offset" />
          </mxGeometry>
        </mxCell>
        <mxCell id="_1HCicG4u0PcO_wvaeoa-108" value="uses" style="edgeLabel;html=1;align=center;verticalAlign=middle;resizable=0;points=[];" vertex="1" connectable="0" parent="_1HCicG4u0PcO_wvaeoa-107">
          <mxGeometry x="-0.0594" y="-2" relative="1" as="geometry">
            <mxPoint x="1" as="offset" />
          </mxGeometry>
        </mxCell>
        <mxCell id="_1HCicG4u0PcO_wvaeoa-109" value="d. Upadated class Diagram of the Smartwatch using Dependency&amp;nbsp;Inversion Pattern" style="text;align=center;fontStyle=1;verticalAlign=middle;spacingLeft=3;spacingRight=3;strokeColor=none;rotatable=0;points=[[0,0.5],[1,0.5]];portConstraint=eastwest;html=1;" vertex="1" parent="1">
          <mxGeometry x="50" y="-1090" width="450" height="30" as="geometry" />
        </mxCell>
        <mxCell id="_1HCicG4u0PcO_wvaeoa-110" value="" style="endArrow=block;dashed=0;endFill=0;html=1;rounded=0;entryX=0.52;entryY=1.054;entryDx=0;entryDy=0;entryPerimeter=0;exitX=0.304;exitY=-0.025;exitDx=0;exitDy=0;exitPerimeter=0;" edge="1" parent="1" source="_1HCicG4u0PcO_wvaeoa-11" target="_1HCicG4u0PcO_wvaeoa-25">
          <mxGeometry x="-0.3472" y="-27" width="160" relative="1" as="geometry">
            <mxPoint x="90" y="-550" as="sourcePoint" />
            <mxPoint x="140" y="-480" as="targetPoint" />
            <Array as="points" />
            <mxPoint as="offset" />
          </mxGeometry>
        </mxCell>
        <mxCell id="_1HCicG4u0PcO_wvaeoa-111" value="uses" style="edgeLabel;html=1;align=center;verticalAlign=middle;resizable=0;points=[];" vertex="1" connectable="0" parent="_1HCicG4u0PcO_wvaeoa-110">
          <mxGeometry x="-0.0594" y="-2" relative="1" as="geometry">
            <mxPoint x="1" as="offset" />
          </mxGeometry>
        </mxCell>
        <mxCell id="_1HCicG4u0PcO_wvaeoa-114" value="" style="endArrow=open;endSize=12;dashed=1;html=1;rounded=0;entryX=0.163;entryY=0.682;entryDx=0;entryDy=0;entryPerimeter=0;" edge="1" parent="1" target="_1HCicG4u0PcO_wvaeoa-1">
          <mxGeometry width="160" relative="1" as="geometry">
            <mxPoint x="420" y="-810" as="sourcePoint" />
            <mxPoint x="260" y="-780" as="targetPoint" />
          </mxGeometry>
        </mxCell>
        <mxCell id="_1HCicG4u0PcO_wvaeoa-115" value="&#xa;&lt;span style=&quot;color: rgb(0, 0, 0); font-family: Helvetica; font-size: 11px; font-style: normal; font-variant-ligatures: normal; font-variant-caps: normal; font-weight: 400; letter-spacing: normal; orphans: 2; text-align: center; text-indent: 0px; text-transform: none; widows: 2; word-spacing: 0px; -webkit-text-stroke-width: 0px; background-color: rgb(255, 255, 255); text-decoration-thickness: initial; text-decoration-style: initial; text-decoration-color: initial; float: none; display: inline !important;&quot;&gt;uses&lt;/span&gt;&#xa;&#xa;" style="endArrow=open;endSize=12;dashed=1;html=1;rounded=0;entryX=0.391;entryY=0;entryDx=0;entryDy=0;entryPerimeter=0;" edge="1" parent="1" target="_1HCicG4u0PcO_wvaeoa-72">
          <mxGeometry x="-0.2851" y="-21" width="160" relative="1" as="geometry">
            <mxPoint x="310" y="250" as="sourcePoint" />
            <mxPoint x="120" y="330" as="targetPoint" />
            <Array as="points" />
            <mxPoint as="offset" />
          </mxGeometry>
        </mxCell>
        <mxCell id="_1HCicG4u0PcO_wvaeoa-116" value="&#xa;&lt;span style=&quot;color: rgb(0, 0, 0); font-family: Helvetica; font-size: 11px; font-style: normal; font-variant-ligatures: normal; font-variant-caps: normal; font-weight: 400; letter-spacing: normal; orphans: 2; text-align: center; text-indent: 0px; text-transform: none; widows: 2; word-spacing: 0px; -webkit-text-stroke-width: 0px; background-color: rgb(255, 255, 255); text-decoration-thickness: initial; text-decoration-style: initial; text-decoration-color: initial; float: none; display: inline !important;&quot;&gt;uses&lt;/span&gt;&#xa;&#xa;" style="endArrow=open;endSize=12;dashed=1;html=1;rounded=0;entryX=0.41;entryY=-0.029;entryDx=0;entryDy=0;entryPerimeter=0;" edge="1" parent="1" target="_1HCicG4u0PcO_wvaeoa-73">
          <mxGeometry x="-0.2387" y="-25" width="160" relative="1" as="geometry">
            <mxPoint x="310" y="250" as="sourcePoint" />
            <mxPoint x="160" y="330" as="targetPoint" />
            <Array as="points" />
            <mxPoint x="-1" as="offset" />
          </mxGeometry>
        </mxCell>
      </root>
    </mxGraphModel>
  </diagram>
</mxfile>
